<svg width="31" height="32" viewBox="0 0 31 32" fill="none" xmlns="http://www.w3.org/2000/svg">
<g id="favorite" clip-path="url(#clip0_225_548)">
<path id="Vector" d="M25.3942 5.18096C21.9842 2.85596 17.7733 3.94096 15.5 6.60179C13.2267 3.94096 9.01582 2.84305 5.60582 5.18096C3.79749 6.42096 2.66082 8.51346 2.58332 10.7222C2.40249 15.7339 6.84582 19.751 13.6271 25.9122L13.7562 26.0285C14.7379 26.9197 16.2492 26.9197 17.2308 26.0155L17.3729 25.8864C24.1542 19.738 28.5846 15.721 28.4167 10.7093C28.3392 8.51346 27.2025 6.42096 25.3942 5.18096ZM15.6292 23.9876L15.5 24.1168L15.3708 23.9876C9.22249 18.4205 5.16666 14.7393 5.16666 11.0064C5.16666 8.42304 7.10416 6.48554 9.68749 6.48554C11.6767 6.48554 13.6142 7.76429 14.2987 9.53388H16.7142C17.3858 7.76429 19.3233 6.48554 21.3125 6.48554C23.8958 6.48554 25.8333 8.42304 25.8333 11.0064C25.8333 14.7393 21.7775 18.4205 15.6292 23.9876Z" fill="#3C3B3B"/>
</g>
<defs>
<clipPath id="clip0_225_548">
<rect width="31" height="31" fill="white" transform="translate(0 0.0273438)"/>
</clipPath>
</defs>
</svg>
