<svg width="39" height="38" viewBox="0 0 39 38" fill="none" xmlns="http://www.w3.org/2000/svg">
<path d="M29.484 6.80123C29.039 6.80247 28.6043 6.93564 28.235 7.18391C27.8657 7.43217 27.5783 7.78438 27.4091 8.19599C27.24 8.60759 27.1967 9.06012 27.2847 9.49633C27.3728 9.93254 27.5882 10.3329 27.9037 10.6466C28.2193 10.9604 28.6208 11.1736 29.0575 11.2592C29.4942 11.3448 29.9465 11.299 30.3571 11.1275C30.7678 10.9561 31.1184 10.6667 31.3646 10.296C31.6108 9.92533 31.7415 9.48994 31.7403 9.04494C31.7386 8.4482 31.4999 7.87657 31.0768 7.45579C30.6537 7.03502 30.0807 6.79956 29.484 6.80123ZM38.1216 11.3146C38.0808 9.75905 37.7852 8.22069 37.2464 6.76081C36.7662 5.51177 36.021 4.38162 35.0621 3.44814C34.131 2.48966 32.9941 1.75549 31.7374 1.30116C30.2783 0.754287 28.7366 0.460557 27.1787 0.432637C25.1909 0.325685 24.5534 0.327465 19.4534 0.341702C14.3534 0.355939 13.7159 0.357718 11.7288 0.475766C10.171 0.512383 8.63096 0.814716 7.17499 1.36973C5.92318 1.83569 4.79135 2.57557 3.86227 3.53524C2.90379 4.46637 2.16962 5.60329 1.71529 6.85999C1.16842 8.31904 0.874687 9.86076 0.846767 11.4187C0.739816 13.4065 0.741595 14.044 0.755832 19.144C0.770069 24.244 0.771848 24.8815 0.889896 26.8686C0.926514 28.4264 1.22885 29.9664 1.78386 31.4224C2.2452 32.6765 2.9857 33.8093 3.94937 34.7351C4.88379 35.6896 6.01973 36.4231 7.27412 36.8821C8.73317 37.429 10.2749 37.7227 11.8328 37.7506C13.8206 37.8576 14.4581 37.8558 19.5581 37.8416C24.6581 37.8273 25.2956 37.8255 27.2828 37.7075C28.8405 37.6709 30.3806 37.3685 31.8365 36.8135C33.0907 36.3522 34.2235 35.6117 35.1492 34.648C36.1071 33.7127 36.8466 32.5774 37.315 31.3232C37.8456 29.8603 38.1326 28.3204 38.1648 26.7646C38.1592 24.7771 38.2699 24.1393 38.2557 19.0393C38.2415 13.9393 38.2397 13.3018 38.1216 11.3146ZM34.7891 26.549C34.7788 27.7392 34.5665 28.9191 34.1614 30.0383C33.8643 30.8551 33.3855 31.5937 32.7611 32.1984C32.1547 32.8198 31.4203 33.3017 30.6088 33.6107C29.4919 34.0221 28.3133 34.241 27.1231 34.2579C25.2484 34.3569 24.5547 34.3776 19.6235 34.3914C14.6922 34.4051 13.9985 34.4071 12.1232 34.2998C10.8874 34.3264 9.65634 34.1395 8.48413 33.7475C7.70657 33.4273 7.00319 32.9506 6.41771 32.347C5.7937 31.7464 5.3168 31.0098 5.0242 30.1946C4.56326 29.0618 4.306 27.8565 4.26425 26.6342C4.25902 24.7592 4.14458 24.0658 4.13082 19.1345C4.11705 14.2033 4.11512 13.5096 4.22238 11.6343C4.22739 10.4175 4.44615 9.21103 4.86869 8.06995C5.19656 7.27761 5.70125 6.57073 6.34417 6.00332C6.91202 5.35705 7.6146 4.84307 8.40248 4.49757C9.54423 4.08196 10.7482 3.86304 11.9632 3.85012C13.8382 3.84489 14.5316 3.73045 19.4628 3.71669C24.3941 3.70292 25.0878 3.70099 26.9631 3.80825C28.1534 3.81858 29.3332 4.03085 30.4524 4.43601C31.3053 4.74986 32.0715 5.26184 32.6878 5.92978C33.3039 6.50402 33.7859 7.20684 34.0998 7.98835C34.5197 9.12893 34.7388 10.3337 34.7473 11.5491C34.8462 13.4238 34.8669 14.1175 34.8807 19.0487C34.8945 23.9799 34.8776 24.6737 34.7891 26.549ZM19.4789 9.47292C17.5773 9.48193 15.7211 10.0544 14.1447 11.118C12.5683 12.1815 11.3426 13.6885 10.6224 15.4485C9.90213 17.2084 9.71972 19.1423 10.0982 21.0059C10.4766 22.8695 11.399 24.579 12.7487 25.9186C14.0984 27.2582 15.8149 28.1676 17.6812 28.532C19.5476 28.8965 21.4801 28.6995 23.2346 27.966C24.989 27.2325 26.4867 25.9955 27.5384 24.4112C28.5901 22.8268 29.1485 20.9663 29.1432 19.0647C29.1422 17.7993 28.8909 16.5466 28.404 15.3786C27.9171 14.2106 27.204 13.1504 26.3058 12.259C25.4077 11.3675 24.3422 10.6625 23.1705 10.1844C21.9989 9.70622 20.7443 9.46444 19.4789 9.47292ZM19.5232 25.3354C18.2883 25.3388 17.0801 24.976 16.0514 24.2928C15.0227 23.6096 14.2197 22.6367 13.744 21.4971C13.2682 20.3575 13.1411 19.1025 13.3786 17.8906C13.6161 16.6788 14.2077 15.5646 15.0785 14.689C15.9492 13.8133 17.0601 13.2156 18.2706 12.9713C19.4811 12.727 20.7368 12.8471 21.879 13.3165C23.0212 13.7859 23.9986 14.5834 24.6875 15.6083C25.3765 16.6332 25.746 17.8393 25.7495 19.0742C25.7518 19.8941 25.5925 20.7065 25.2809 21.4649C24.9692 22.2233 24.5112 22.9129 23.9331 23.4943C23.3549 24.0757 22.6679 24.5375 21.9112 24.8534C21.1546 25.1693 20.3431 25.3331 19.5232 25.3354Z" fill="#181818"/>
</svg>
