<svg width="35" height="35" viewBox="0 0 35 35" fill="none" xmlns="http://www.w3.org/2000/svg">
<path fill-rule="evenodd" clip-rule="evenodd" d="M17.5 29.1667C23.9433 29.1667 29.1666 23.9434 29.1666 17.5C29.1666 11.0567 23.9433 5.83337 17.5 5.83337C11.0567 5.83337 5.83332 11.0567 5.83332 17.5C5.83332 23.9434 11.0567 29.1667 17.5 29.1667ZM32.0833 17.5C32.0833 25.5542 25.5541 32.0834 17.5 32.0834C9.44583 32.0834 2.91665 25.5542 2.91665 17.5C2.91665 9.44589 9.44583 2.91671 17.5 2.91671C25.5541 2.91671 32.0833 9.44589 32.0833 17.5ZM18.5312 20.8438C19.1007 21.4134 19.1007 22.3367 18.5312 22.9062C17.9617 23.4758 17.0383 23.4758 16.4688 22.9062L12.0938 18.5312C11.5243 17.9617 11.5243 17.0384 12.0938 16.4688L16.4688 12.0938C17.0383 11.5243 17.9617 11.5243 18.5312 12.0938C19.1007 12.6634 19.1007 13.5867 18.5312 14.1562L16.6457 16.0417L21.875 16.0417C22.6804 16.0417 23.3333 16.6946 23.3333 17.5C23.3333 18.3055 22.6804 18.9584 21.875 18.9584L16.6457 18.9584L18.5312 20.8438Z" fill="black"/>
</svg>
