<svg width="26" height="28" viewBox="0 0 26 28" fill="none" xmlns="http://www.w3.org/2000/svg">
<g id="Group 8">
<path id="Rectangle 5" d="M1.6665 13.75C1.6665 11.8644 1.6665 10.9216 2.25229 10.3358C2.83808 9.75 3.78089 9.75 5.6665 9.75H20.3332C22.2188 9.75 23.1616 9.75 23.7474 10.3358C24.3332 10.9216 24.3332 11.8644 24.3332 13.75V20.75C24.3332 23.5784 24.3332 24.9926 23.4545 25.8713C22.5758 26.75 21.1616 26.75 18.3332 26.75H7.6665C4.83808 26.75 3.42386 26.75 2.54518 25.8713C1.6665 24.9926 1.6665 23.5784 1.6665 20.75V13.75Z" stroke="#33363F" stroke-width="2"/>
<path id="Vector 5" d="M18.6663 8.33333V6.91667C18.6663 6.29753 18.6663 5.98796 18.639 5.72736C18.3922 3.3795 16.5368 1.52416 14.189 1.27739C13.9284 1.25 13.6188 1.25 12.9997 1.25V1.25C12.3805 1.25 12.071 1.25 11.8104 1.27739C9.46251 1.52416 7.60717 3.3795 7.3604 5.72736C7.33301 5.98796 7.33301 6.29753 7.33301 6.91667V8.33333" stroke="#33363F" stroke-width="2" stroke-linecap="round"/>
<circle id="Ellipse 6" cx="12.9998" cy="18.2503" r="2.83333" fill="#33363F"/>
</g>
</svg>
