<svg width="35" height="35" viewBox="0 0 35 35" fill="none" xmlns="http://www.w3.org/2000/svg">
<path fill-rule="evenodd" clip-rule="evenodd" d="M17.5 5.83329C11.0567 5.83329 5.83335 11.0566 5.83335 17.5C5.83335 23.9433 11.0567 29.1666 17.5 29.1666C23.9433 29.1666 29.1667 23.9433 29.1667 17.5C29.1667 11.0566 23.9433 5.83329 17.5 5.83329ZM2.91669 17.5C2.91669 9.44581 9.44587 2.91663 17.5 2.91663C25.5542 2.91663 32.0834 9.44581 32.0834 17.5C32.0834 25.5541 25.5542 32.0833 17.5 32.0833C9.44587 32.0833 2.91669 25.5541 2.91669 17.5ZM16.4688 14.1562C15.8993 13.5866 15.8993 12.6633 16.4688 12.0938C17.0383 11.5242 17.9617 11.5242 18.5312 12.0938L22.9062 16.4688C23.4757 17.0383 23.4757 17.9616 22.9062 18.5312L18.5312 22.9062C17.9617 23.4757 17.0383 23.4757 16.4688 22.9062C15.8993 22.3366 15.8993 21.4133 16.4688 20.8438L18.3543 18.9583H13.125C12.3196 18.9583 11.6667 18.3054 11.6667 17.5C11.6667 16.6945 12.3196 16.0416 13.125 16.0416H18.3543L16.4688 14.1562Z" fill="black"/>
</svg>
