<svg width="21" height="21" viewBox="0 0 21 21" fill="none" xmlns="http://www.w3.org/2000/svg">
<path d="M9.54056 2.46049C9.75643 1.78974 10.7045 1.78709 10.9241 2.45662L12.3676 6.85743C12.4658 7.15686 12.7457 7.35899 13.0608 7.35811L17.6923 7.34518C18.3969 7.34321 18.6924 8.24406 18.1235 8.65982L14.3842 11.3926C14.1297 11.5785 14.024 11.9071 14.1222 12.2066L15.5657 16.6074C15.7853 17.2769 15.0199 17.8363 14.4486 17.4237L10.6941 14.7119C10.4386 14.5274 10.0934 14.5283 9.83901 14.7143L6.09966 17.447C5.53076 17.8628 4.7622 17.3077 4.97807 16.6369L6.39698 12.2281C6.49352 11.9282 6.38593 11.6002 6.13047 11.4156L2.37593 8.70378C1.80471 8.2912 2.09517 7.38872 2.79979 7.38675L7.43128 7.37382C7.7464 7.37294 8.02511 7.16925 8.12165 6.86928L9.54056 2.46049Z" fill="#3E66DF"/>
</svg>
